<svg width="36" height="36" viewBox="0 0 36 36" fill="none" xmlns="http://www.w3.org/2000/svg">
  <circle cx="18" cy="18" r="16" fill="#E0E7FF"/>
  <path d="M28.4 6.6a5.6 5.6 0 0 1 2.6 2.6" stroke="#A5B4FC" stroke-width="1.3" stroke-linecap="round"/>
  <path d="M30.6 4.4a9 9 0 0 1 2.9 3" stroke="#C7D2FE" stroke-width="1.3" stroke-linecap="round"/>
  <path d="M18 14.2 5.6 21v2l12.4-3.4L30.4 23v-2L18 14.2Z" fill="#2563EB"/>
  <path d="M18 22.4 12 25.8v1.5l6-1.8 6 1.8v-1.5L18 22.4Z" fill="#1D4ED8"/>
  <rect x="16.1" y="8.4" width="3.8" height="18.6" rx="1.9" fill="#3B82F6"/>
  <path d="M18 26.4c1 0 1.9.7 2.2 1.7h-4.4c.3-1 1.2-1.7 2.2-1.7Z" fill="#1E40AF"/>
  <ellipse cx="18" cy="12.6" rx="1.15" ry="2" fill="#BFDBFE"/>
  <ellipse cx="18" cy="7.4" rx="5.4" ry="0.95" fill="#334155"/>
  <circle cx="18" cy="7.4" r="1.3" fill="#F97316"/>
  <circle cx="5.9" cy="21.9" r="0.85" fill="#F43F5E"/>
  <circle cx="30.1" cy="21.9" r="0.85" fill="#22C55E"/>
</svg>
