<svg width="36" height="36" viewBox="0 0 36 36" fill="none" xmlns="http://www.w3.org/2000/svg">
  <circle cx="18" cy="18" r="16" fill="#DCFCE7"/>
  <path d="M9.4 27.4c0-2.6 1.6-4.2 3.6-4.2s3.6 1.6 3.6 4.2" stroke="#F97316" stroke-width="1.5" stroke-linecap="round"/>
  <ellipse cx="18" cy="21.4" rx="8.2" ry="6.6" fill="#22C55E"/>
  <ellipse cx="18" cy="23.4" rx="5.2" ry="3.9" fill="#BBF7D0"/>
  <ellipse cx="10.6" cy="26.6" rx="2.9" ry="1.7" fill="#16A34A" transform="rotate(-14 10.6 26.6)"/>
  <ellipse cx="25.4" cy="26.6" rx="2.9" ry="1.7" fill="#16A34A" transform="rotate(14 25.4 26.6)"/>
  <circle cx="13.6" cy="13.4" r="4.1" fill="#22C55E"/>
  <circle cx="22.4" cy="13.4" r="4.1" fill="#22C55E"/>
  <circle cx="13.6" cy="13.2" r="2.7" fill="#FFFFFF"/>
  <circle cx="22.4" cy="13.2" r="2.7" fill="#FFFFFF"/>
  <circle cx="14.2" cy="13.6" r="1.35" fill="#1E293B"/>
  <circle cx="21.8" cy="13.6" r="1.35" fill="#1E293B"/>
  <circle cx="14.7" cy="13.1" r="0.45" fill="#FFFFFF"/>
  <circle cx="22.3" cy="13.1" r="0.45" fill="#FFFFFF"/>
  <path d="M14.4 20.4c1 1.15 2.2 1.72 3.6 1.72s2.6-.57 3.6-1.72" stroke="#15803D" stroke-width="1.3" stroke-linecap="round"/>
  <circle cx="28.6" cy="10.6" r="2.5" fill="#FACC15"/>
  <circle cx="27.9" cy="9.9" r="0.8" fill="#FEF9C3"/>
  <circle cx="7.6" cy="10.8" r="1.7" fill="#F43F5E"/>
</svg>
